<mxfile host="app.diagrams.net" modified="2021-03-09T06:52:47.838Z" agent="5.0 (Macintosh; Intel Mac OS X 10_13_6) AppleWebKit/537.36 (KHTML, like Gecko) Chrome/88.0.4324.192 Safari/537.36" etag="BW2k4LaAHMGmNiMdH8IY" version="14.1.7" type="github">
  <diagram id="cqH-g5n6tbG-gCtTxMnF" name="Page-1">
    <mxGraphModel dx="946" dy="536" grid="0" gridSize="10" guides="1" tooltips="1" connect="1" arrows="1" fold="1" page="1" pageScale="1" pageWidth="827" pageHeight="1169" background="#114B5F" math="0" shadow="0">
      <root>
        <mxCell id="0" />
        <mxCell id="1" parent="0" />
        <mxCell id="_WqPi_9g9isWRKhqcp-5-1" value="" style="rounded=0;whiteSpace=wrap;html=1;strokeColor=#028090;fontColor=#E4FDE1;fillColor=#006633;" vertex="1" parent="1">
          <mxGeometry x="245" y="181" width="120" height="60" as="geometry" />
        </mxCell>
      </root>
    </mxGraphModel>
  </diagram>
</mxfile>
